<?xml version="1.0" encoding="UTF-8" standalone="no"?>
<!-- Uploaded to: SVG Repo, www.svgrepo.com, Generator: SVG Repo Mixer Tools -->

<svg
   fill="#000000"
   width="800px"
   height="800px"
   viewBox="0 0 24 24"
   version="1.1"
   id="svg3"
   sodipodi:docname="leaderboard.svg"
   inkscape:export-filename="leaderboardicon.png"
   inkscape:export-xdpi="96"
   inkscape:export-ydpi="96"
   inkscape:version="1.3.2 (091e20e, 2023-11-25, custom)"
   xmlns:inkscape="http://www.inkscape.org/namespaces/inkscape"
   xmlns:sodipodi="http://sodipodi.sourceforge.net/DTD/sodipodi-0.dtd"
   xmlns="http://www.w3.org/2000/svg"
   xmlns:svg="http://www.w3.org/2000/svg">
  <defs
     id="defs3" />
  <sodipodi:namedview
     id="namedview3"
     pagecolor="#ffffff"
     bordercolor="#000000"
     borderopacity="0.25"
     inkscape:showpageshadow="2"
     inkscape:pageopacity="0.0"
     inkscape:pagecheckerboard="0"
     inkscape:deskcolor="#d1d1d1"
     showgrid="false"
     inkscape:zoom="0.49"
     inkscape:cx="222.44898"
     inkscape:cy="456.12245"
     inkscape:window-width="1920"
     inkscape:window-height="1111"
     inkscape:window-x="-9"
     inkscape:window-y="-9"
     inkscape:window-maximized="1"
     inkscape:current-layer="svg3" />
  <path
     d="M6.5,12h-4a.5.5,0,0,0-.5.5V20H7V12.5A.5.5,0,0,0,6.5,12Z"
     id="path1" />
  <path
     d="M14,4H10a.5.5,0,0,0-.5.5V20h5V4.5A.5.5,0,0,0,14,4Z"
     id="path2" />
  <path
     d="M21.5,8h-4a.5.5,0,0,0-.5.5V20h5V8.5A.5.5,0,0,0,21.5,8Z"
     id="path3" />
</svg>
